Coordinates
version=1
nRows=17
nColumns=40
inDegrees=yes

Units are S.I. units (second, meters, Newtons, ...)
If the header above contains a line with 'inDegrees', this indicates whether rotational values are in degrees (yes) or radians (no).

endheader
time	pelvis_tilt	pelvis_list	pelvis_rotation	pelvis_tx	pelvis_ty	pelvis_tz	hip_flexion_r	hip_adduction_r	hip_rotation_r	knee_angle_r	knee_angle_r_beta	ankle_angle_r	subtalar_angle_r	mtp_angle_r	hip_flexion_l	hip_adduction_l	hip_rotation_l	knee_angle_l	knee_angle_l_beta	ankle_angle_l	subtalar_angle_l	mtp_angle_l	lumbar_extension	lumbar_bending	lumbar_rotation	arm_flex_r	arm_add_r	arm_rot_r	elbow_flex_r	pro_sup_r	wrist_flex_r	wrist_dev_r	arm_flex_l	arm_add_l	arm_rot_l	elbow_flex_l	pro_sup_l	wrist_flex_l	wrist_dev_l
      0.35000000	      8.97674018	      7.29560281	     -8.03534682	     -0.85404934	      0.95650680	      0.21470597	     17.43591744	     -8.90080534	      9.05673722	     59.29649880	      1.03491914	     10.25448941	      0.00000000	      0.00000000	     -6.25660755	     11.70578363	     -0.11304690	      7.91177860	      0.13808659	      6.52984316	      0.00000000	      0.00000000	    -23.93482760	     -7.63136046	     -2.57317187	     -1.61871398	     -8.73188464	      3.75536852	     40.45804820	     88.76953882	     -9.55049165	      2.28573650	      3.27620269	     -9.24737376	    -10.65235682	     40.98039876	     88.83567935	    -13.67299664	      4.51186191
      0.36000000	      9.08984586	      7.11563649	     -7.28848057	     -0.84204353	      0.95670198	      0.21284004	     17.81642947	     -8.97846393	      7.65544894	     56.39814414	      0.98433331	     10.63077112	      0.00000000	      0.00000000	     -7.51898166	     11.63104567	      0.56496936	      7.43455310	      0.12975743	      6.94764513	      0.00000000	      0.00000000	    -24.16026590	     -7.05953006	     -3.68424571	     -1.81279782	     -8.71005570	      3.98665403	     39.57326955	     88.76566991	     -9.81262830	      2.35280607	      3.90308308	     -9.50461698	    -10.60132411	     42.44041757	     88.84801148	    -13.28227851	      4.58123870
      0.37000000	      9.18375675	      7.00684145	     -6.53068075	     -0.82992358	      0.95661331	      0.21098488	     18.10659372	     -9.19312836	      6.07934550	     53.26262158	      0.92960811	     11.00503494	      0.00000000	      0.00000000	     -8.73570773	     11.59790920	      1.26199989	      7.01504072	      0.12243556	      7.39170318	      0.00000000	      0.00000000	    -24.31785490	     -6.55886422	     -4.72626914	     -2.09014596	     -8.67689459	      4.07833559	     38.74282011	     88.76585408	    -10.04812025	      2.38258630	      4.57053279	     -9.76705288	    -10.45538707	     43.83277937	     88.84718757	    -12.90466227	      4.60904263
      0.38000000	      9.35492408	      6.81029312	     -5.76185699	     -0.81774865	      0.95650031	      0.20920600	     18.16118541	     -9.35954784	      4.28909682	     49.85878356	      0.87019993	     11.15936252	      0.00000000	      0.00000000	    -10.03245463	     11.43931458	      1.93141666	      6.63934544	      0.11587844	      7.89646393	      0.00000000	      0.00000000	    -24.57070153	     -5.97566442	     -5.77567889	     -2.35147946	     -8.62309431	      4.07348275	     37.93656078	     88.75375151	    -10.34333557	      2.35453033	      5.18578300	    -10.01719281	    -10.40718772	     45.31923068	     88.84899680	    -12.48759713	      4.63509360
      0.39000000	      9.53387315	      6.62588318	     -4.97664352	     -0.80542901	      0.95618915	      0.20752245	     18.07809445	     -9.56538089	      2.26363502	     46.25419753	      0.80728804	     11.22514569	      0.00000000	      0.00000000	    -11.31201955	     11.24834882	      2.64689013	      6.34318106	      0.11070939	      8.43293590	      0.00000000	      0.00000000	    -24.78170030	     -5.40169496	     -6.77403644	     -2.68977322	     -8.55744019	      3.93917556	     37.20369813	     88.74258227	    -10.62216196	      2.28230747	      5.81361607	    -10.25547334	    -10.32761808	     46.72623039	     88.84710096	    -12.12478315	      4.62283571
      0.40000000	      9.80871574	      6.32446561	     -4.20145585	     -0.79301009	      0.95593491	      0.20599142	     17.72536070	     -9.62503425	      0.01716281	     42.38387923	      0.73973824	     10.96721050	      0.00000000	      0.00000000	    -12.69653901	     10.89535170	      3.32775678	      6.06713075	      0.10589141	      9.01494743	      0.00000000	      0.00000000	    -25.10330808	     -4.72273351	     -7.72462628	     -3.02928340	     -8.49414412	      3.73985252	     36.53258956	     88.72865632	    -10.94689455	      2.14668490	      6.38398766	    -10.46926943	    -10.31979104	     48.21764894	     88.84034483	    -11.74903726	      4.60308942
      0.41000000	     10.08375591	      5.99535829	     -3.45066859	     -0.78051013	      0.95552501	      0.20468289	     17.26717039	     -9.58339274	     -2.37196983	     38.36486121	      0.66959315	     10.51037532	      0.00000000	      0.00000000	    -14.04965285	     10.46784851	      3.95150718	      5.86045552	      0.10228424	      9.62181953	      0.00000000	      0.00000000	    -25.39322580	     -4.03935815	     -8.58116130	     -3.40427208	     -8.39948071	      3.41423474	     35.87165133	     88.70713191	    -11.28046837	      1.97938859	      6.95007448	    -10.66060314	    -10.31402215	     49.68505622	     88.83524871	    -11.41486500	      4.56788220
      0.42000000	     10.37193870	      5.61743625	     -2.77351724	     -0.76793796	      0.95498818	      0.20372845	     16.71081967	     -9.35579299	     -4.76241483	     34.21649372	      0.59719047	      9.79350980	      0.00000000	      0.00000000	    -15.39782827	      9.95341440	      4.49703032	      5.67923091	      0.09912128	     10.25530779	      0.00000000	      0.00000000	    -25.68528184	     -3.34631406	     -9.32901451	     -3.80203491	     -8.28997810	      3.01715568	     35.27640808	     88.67864188	    -11.62214454	      1.77034058	      7.47472126	    -10.84672374	    -10.31623525	     51.17678200	     88.82535422	    -11.10675873	      4.52616013
      0.43000000	     10.65407953	      5.21977222	     -2.15775888	     -0.75538166	      0.95427075	      0.20317407	     16.12772133	     -8.95114182	     -7.05612015	     30.05431263	      0.52454671	      8.87640216	      0.00000000	      0.00000000	    -16.70105757	      9.38198344	      4.94920936	      5.54223370	      0.09673023	     10.88438707	      0.00000000	      0.00000000	    -25.95697191	     -2.69048527	     -9.94961583	     -4.21229553	     -8.13565456	      2.52486261	     34.68199877	     88.65509976	    -11.97059174	      1.53688270	      7.98575929	    -11.02679215	    -10.32408819	     52.68072153	     88.82112100	    -10.82345701	      4.49522680
      0.44000000	     10.83999178	      4.87058692	     -1.67125561	     -0.74283221	      0.95320887	      0.20300965	     15.69364738	     -8.41111243	     -8.97201898	     25.98312958	      0.45349116	      7.79728658	      0.00000000	      0.00000000	    -17.85823570	      8.85344449	      5.26202345	      5.45683763	      0.09523978	     11.53198320	      0.00000000	      0.00000000	    -26.10924101	     -2.14986937	    -10.42560785	     -4.64539430	     -7.94965282	      1.94364011	     34.12194773	     88.62547374	    -12.29919665	      1.28583236	      8.46334685	    -11.19304899	    -10.32215306	     54.18145614	     88.81200165	    -10.57666000	      4.47646317
      0.45000000	     10.65507002	      4.86904905	     -1.55564484	     -0.73058967	      0.95122875	      0.20369576	     15.93702367	     -7.98048190	     -9.80568750	     22.31828769	      0.38952760	      6.61267178	      0.00000000	      0.00000000	    -18.49102249	      8.75661730	      5.29844712	      5.52209283	      0.09637870	     12.09695654	      0.00000000	      0.00000000	    -25.83516884	     -2.15891443	    -10.66800601	     -5.02276130	     -7.66697885	      1.26590845	     33.42412306	     88.58276265	    -12.52894322	      1.18910551	      8.91328921	    -11.39686118	    -10.29532451	     55.62158533	     88.79485974	    -10.46005036	      4.38086262
      0.46000000	     10.84732158	      4.41403413	     -1.12740101	     -0.71795104	      0.94990897	      0.20396444	     15.48501248	     -7.09920940	    -11.00554481	     18.54742958	      0.32371371	      5.41663101	      0.00000000	      0.00000000	    -19.63769780	      8.08361950	      5.49271655	      5.46837469	      0.09544114	     12.80229562	      0.00000000	      0.00000000	    -26.02326390	     -1.55113517	    -10.93426455	     -5.53290559	     -7.46612437	      0.53458142	     33.02517256	     88.56487740	    -12.82256008	      0.77871605	      9.33822886	    -11.48210343	    -10.30368072	     57.18643412	     88.79171703	    -10.23538481	      4.44110908
      0.47000000	     10.73240385	      4.33926201	     -1.00561490	     -0.70560369	      0.94787198	      0.20494669	     15.58941013	     -6.45411212	    -11.01644789	     15.24367119	      0.26605225	      4.34035532	      0.00000000	      0.00000000	    -20.34995319	      7.87094779	      5.50725971	      5.52043447	      0.09634976	     13.38527784	      0.00000000	      0.00000000	    -25.85019084	     -1.50504194	    -11.02267575	     -5.98007112	     -7.17207413	     -0.22866292	     32.48995212	     88.54011782	    -13.05910553	      0.51527718	      9.75440477	    -11.61401235	    -10.26828829	     58.66992789	     88.78840442	     -9.98054606	      4.54750165
      0.48000000	     10.41145644	      4.36770926	     -1.03458214	     -0.69317264	      0.94537433	      0.20597769	     16.00123979	     -5.89097048	    -10.34086539	     12.34462360	      0.21545433	      3.27441160	      0.00000000	      0.00000000	    -20.80297423	      7.83025067	      5.29779861	      5.66882931	      0.09893974	     13.95617505	      0.00000000	      0.00000000	    -25.46230729	     -1.59069069	    -11.04793090	     -6.41907342	     -6.90915797	     -0.97748886	     32.01113654	     88.50885418	    -13.21577738	      0.34469988	     10.02936792	    -11.69402865	    -10.30485482	     60.19044439	     88.78355040	     -9.85387195	      4.50605252
      0.49000000	     10.08066687	      4.48756242	     -1.01893675	     -0.68084444	      0.94286383	      0.20700549	     16.39528817	     -5.45915538	     -9.24503290	      9.76423712	      0.17041809	      2.43207270	      0.00000000	      0.00000000	    -21.21619664	      7.86257852	      5.25853337	      5.85199938	      0.10213666	     14.46146774	      0.00000000	      0.00000000	    -25.07067285	     -1.77853939	    -11.08989953	     -6.79137854	     -6.63941031	     -1.63052759	     31.44813883	     88.45739819	    -13.33596718	      0.27405422	     10.32686056	    -11.75584770	    -10.28833436	     61.62163410	     88.77279829	     -9.76627784	      4.40436324
      0.50000000	      9.75691528	      4.56954681	     -0.95465464	     -0.66816304	      0.94038383	      0.20795164	     16.70335349	     -5.05024152	     -7.98123076	      7.51744974	      0.13120425	      1.89633855	      0.00000000	      0.00000000	    -21.65407363	      7.83767284	      5.16875491	      6.05425091	      0.10566661	     14.89374348	      0.00000000	      0.00000000	    -24.65953225	     -1.89843391	    -11.14051854	     -7.18731175	     -6.41048504	     -2.20108711	     30.93920999	     88.39437272	    -13.42935817	      0.21845532	     10.51715960	    -11.81534305	    -10.18577810	     63.02912089	     88.77311832	     -9.67407933	      4.28556993
      0.51000000	      9.57090934	      4.54304393	     -1.12767310	     -0.65551940	      0.93821989	      0.20908441	     16.86715140	     -4.54023483	     -6.47033084	      5.63889544	      0.09841729	      0.97444101	      0.00000000	      0.00000000	    -22.19153049	      7.78938349	      4.71874941	      6.34016589	      0.11065677	     15.26463932	      0.00000000	      0.00000000	    -24.46975287	     -1.95093671	    -10.94239597	     -7.52532174	     -6.20829804	     -2.94928556	     30.48764615	     88.40542236	    -13.48368647	      0.02963173	     10.63451919	    -11.66774373	    -10.40681348	     64.57397189	     88.77324075	     -9.55981012	      4.24707371
